<svg xmlns="http://www.w3.org/2000/svg" version="1.1" xmlns:xlink="http://www.w3.org/1999/xlink" xmlns:svgjs="http://svgjs.dev/svgjs" width="488" height="366" preserveAspectRatio="none" viewBox="0 0 488 366"><g mask="url(&quot;#SvgjsMask1136&quot;)" fill="none"><rect width="488" height="366" x="0" y="0" fill="rgba(252, 252, 252, 1)"></rect><use xlink:href="#SvgjsPath1137" x="30" y="30" stroke="rgba(210, 248, 152, 1)"></use><use xlink:href="#SvgjsPath1137" x="30" y="90" stroke="rgba(210, 248, 152, 1)"></use><use xlink:href="#SvgjsPath1138" x="30" y="150" stroke="rgba(210, 248, 152, 1)"></use><use xlink:href="#SvgjsPath1138" x="30" y="210" stroke="rgba(210, 248, 152, 1)"></use><use xlink:href="#SvgjsPath1137" x="30" y="270" stroke="rgba(210, 248, 152, 1)"></use><use xlink:href="#SvgjsPath1138" x="30" y="330" stroke="rgba(210, 248, 152, 1)"></use><use xlink:href="#SvgjsPath1139" x="30" y="390" stroke="rgba(210, 248, 152, 1)"></use><use xlink:href="#SvgjsPath1137" x="90" y="30" stroke="rgba(210, 248, 152, 1)"></use><use xlink:href="#SvgjsPath1138" x="90" y="90" stroke="rgba(210, 248, 152, 1)"></use><use xlink:href="#SvgjsPath1138" x="90" y="150" stroke="rgba(210, 248, 152, 1)"></use><use xlink:href="#SvgjsPath1137" x="90" y="210" stroke="rgba(210, 248, 152, 1)"></use><use xlink:href="#SvgjsPath1137" x="90" y="270" stroke="rgba(210, 248, 152, 1)"></use><use xlink:href="#SvgjsPath1137" x="90" y="330" stroke="rgba(210, 248, 152, 1)"></use><use xlink:href="#SvgjsPath1138" x="90" y="390" stroke="rgba(210, 248, 152, 1)"></use><use xlink:href="#SvgjsPath1140" x="150" y="30" stroke="rgba(210, 248, 152, 1)"></use><use xlink:href="#SvgjsPath1138" x="150" y="90" stroke="rgba(210, 248, 152, 1)"></use><use xlink:href="#SvgjsPath1139" x="150" y="150" stroke="rgba(210, 248, 152, 1)"></use><use xlink:href="#SvgjsPath1138" x="150" y="210" stroke="rgba(210, 248, 152, 1)"></use><use xlink:href="#SvgjsPath1138" x="150" y="270" stroke="rgba(210, 248, 152, 1)"></use><use xlink:href="#SvgjsPath1140" x="150" y="330" stroke="rgba(210, 248, 152, 1)"></use><use xlink:href="#SvgjsPath1141" x="150" y="390" stroke="rgba(210, 248, 152, 1)"></use><use xlink:href="#SvgjsPath1139" x="210" y="30" stroke="rgba(210, 248, 152, 1)"></use><use xlink:href="#SvgjsPath1138" x="210" y="90" stroke="rgba(210, 248, 152, 1)"></use><use xlink:href="#SvgjsPath1141" x="210" y="150" stroke="rgba(210, 248, 152, 1)"></use><use xlink:href="#SvgjsPath1139" x="210" y="210" stroke="rgba(210, 248, 152, 1)"></use><use xlink:href="#SvgjsPath1137" x="210" y="270" stroke="rgba(210, 248, 152, 1)"></use><use xlink:href="#SvgjsPath1137" x="210" y="330" stroke="rgba(210, 248, 152, 1)"></use><use xlink:href="#SvgjsPath1138" x="210" y="390" stroke="rgba(210, 248, 152, 1)"></use><use xlink:href="#SvgjsPath1137" x="270" y="30" stroke="rgba(210, 248, 152, 1)"></use><use xlink:href="#SvgjsPath1140" x="270" y="90" stroke="rgba(210, 248, 152, 1)"></use><use xlink:href="#SvgjsPath1138" x="270" y="150" stroke="rgba(210, 248, 152, 1)"></use><use xlink:href="#SvgjsPath1138" x="270" y="210" stroke="rgba(210, 248, 152, 1)"></use><use xlink:href="#SvgjsPath1138" x="270" y="270" stroke="rgba(210, 248, 152, 1)"></use><use xlink:href="#SvgjsPath1139" x="270" y="330" stroke="rgba(210, 248, 152, 1)"></use><use xlink:href="#SvgjsPath1138" x="270" y="390" stroke="rgba(210, 248, 152, 1)"></use><use xlink:href="#SvgjsPath1138" x="330" y="30" stroke="rgba(210, 248, 152, 1)"></use><use xlink:href="#SvgjsPath1140" x="330" y="90" stroke="rgba(210, 248, 152, 1)"></use><use xlink:href="#SvgjsPath1140" x="330" y="150" stroke="rgba(210, 248, 152, 1)"></use><use xlink:href="#SvgjsPath1137" x="330" y="210" stroke="rgba(210, 248, 152, 1)"></use><use xlink:href="#SvgjsPath1138" x="330" y="270" stroke="rgba(210, 248, 152, 1)"></use><use xlink:href="#SvgjsPath1139" x="330" y="330" stroke="rgba(210, 248, 152, 1)"></use><use xlink:href="#SvgjsPath1138" x="330" y="390" stroke="rgba(210, 248, 152, 1)"></use><use xlink:href="#SvgjsPath1141" x="390" y="30" stroke="rgba(210, 248, 152, 1)"></use><use xlink:href="#SvgjsPath1138" x="390" y="90" stroke="rgba(210, 248, 152, 1)"></use><use xlink:href="#SvgjsPath1139" x="390" y="150" stroke="rgba(210, 248, 152, 1)"></use><use xlink:href="#SvgjsPath1137" x="390" y="210" stroke="rgba(210, 248, 152, 1)"></use><use xlink:href="#SvgjsPath1139" x="390" y="270" stroke="rgba(210, 248, 152, 1)"></use><use xlink:href="#SvgjsPath1137" x="390" y="330" stroke="rgba(210, 248, 152, 1)"></use><use xlink:href="#SvgjsPath1138" x="390" y="390" stroke="rgba(210, 248, 152, 1)"></use><use xlink:href="#SvgjsPath1141" x="450" y="30" stroke="rgba(210, 248, 152, 1)"></use><use xlink:href="#SvgjsPath1138" x="450" y="90" stroke="rgba(210, 248, 152, 1)"></use><use xlink:href="#SvgjsPath1137" x="450" y="150" stroke="rgba(210, 248, 152, 1)"></use><use xlink:href="#SvgjsPath1137" x="450" y="210" stroke="rgba(210, 248, 152, 1)"></use><use xlink:href="#SvgjsPath1137" x="450" y="270" stroke="rgba(210, 248, 152, 1)"></use><use xlink:href="#SvgjsPath1137" x="450" y="330" stroke="rgba(210, 248, 152, 1)"></use><use xlink:href="#SvgjsPath1138" x="450" y="390" stroke="rgba(210, 248, 152, 1)"></use><use xlink:href="#SvgjsPath1137" x="510" y="30" stroke="rgba(210, 248, 152, 1)"></use><use xlink:href="#SvgjsPath1138" x="510" y="90" stroke="rgba(210, 248, 152, 1)"></use><use xlink:href="#SvgjsPath1137" x="510" y="150" stroke="rgba(210, 248, 152, 1)"></use><use xlink:href="#SvgjsPath1140" x="510" y="210" stroke="rgba(210, 248, 152, 1)"></use><use xlink:href="#SvgjsPath1139" x="510" y="270" stroke="rgba(210, 248, 152, 1)"></use><use xlink:href="#SvgjsPath1141" x="510" y="330" stroke="rgba(210, 248, 152, 1)"></use><use xlink:href="#SvgjsPath1137" x="510" y="390" stroke="rgba(210, 248, 152, 1)"></use></g><defs><mask id="SvgjsMask1136"><rect width="488" height="366" fill="#ffffff"></rect></mask><path d="M-1 0 a1 1 0 1 0 2 0 a1 1 0 1 0 -2 0z" id="SvgjsPath1140"></path><path d="M-3 0 a3 3 0 1 0 6 0 a3 3 0 1 0 -6 0z" id="SvgjsPath1141"></path><path d="M-5 0 a5 5 0 1 0 10 0 a5 5 0 1 0 -10 0z" id="SvgjsPath1138"></path><path d="M2 -2 L-2 2z" id="SvgjsPath1139"></path><path d="M6 -6 L-6 6z" id="SvgjsPath1137"></path><path d="M30 -30 L-30 30z"></path></defs></svg>