<svg width="15" height="15" viewBox="0 0 15 15" fill="none" xmlns="http://www.w3.org/2000/svg">
<g clip-path="url(#clip0_1_13)">
<path d="M12.1875 8.4375C12.1887 8.62862 12.1306 8.81542 12.0213 8.97218C11.912 9.12895 11.7567 9.24798 11.577 9.31289L8.55469 10.4297L7.44141 13.4543C7.37548 13.6334 7.2562 13.788 7.09967 13.8972C6.94313 14.0063 6.75687 14.0649 6.56602 14.0649C6.37517 14.0649 6.18891 14.0063 6.03237 13.8972C5.87583 13.788 5.75656 13.6334 5.69063 13.4543L4.57031 10.4297L1.5457 9.31641C1.3666 9.25048 1.21203 9.1312 1.10284 8.97466C0.993661 8.81813 0.93512 8.63187 0.93512 8.44102C0.93512 8.25016 0.993661 8.0639 1.10284 7.90737C1.21203 7.75083 1.3666 7.63155 1.5457 7.56563L4.57031 6.44531L5.6836 3.4207C5.74952 3.2416 5.8688 3.08703 6.02534 2.97784C6.18187 2.86866 6.36813 2.81012 6.55899 2.81012C6.74984 2.81012 6.9361 2.86866 7.09264 2.97784C7.24917 3.08703 7.36845 3.2416 7.43438 3.4207L8.55469 6.44531L11.5793 7.55859C11.7592 7.6241 11.9143 7.74383 12.0233 7.90126C12.1322 8.05869 12.1896 8.24606 12.1875 8.4375ZM8.90625 2.8125H9.84375V3.75C9.84375 3.87432 9.89314 3.99355 9.98105 4.08146C10.069 4.16936 10.1882 4.21875 10.3125 4.21875C10.4368 4.21875 10.5561 4.16936 10.644 4.08146C10.7319 3.99355 10.7813 3.87432 10.7813 3.75V2.8125H11.7188C11.8431 2.8125 11.9623 2.76311 12.0502 2.67521C12.1381 2.5873 12.1875 2.46807 12.1875 2.34375C12.1875 2.21943 12.1381 2.1002 12.0502 2.01229C11.9623 1.92439 11.8431 1.875 11.7188 1.875H10.7813V0.9375C10.7813 0.81318 10.7319 0.693951 10.644 0.606044C10.5561 0.518136 10.4368 0.46875 10.3125 0.46875C10.1882 0.46875 10.069 0.518136 9.98105 0.606044C9.89314 0.693951 9.84375 0.81318 9.84375 0.9375V1.875H8.90625C8.78193 1.875 8.6627 1.92439 8.5748 2.01229C8.48689 2.1002 8.4375 2.21943 8.4375 2.34375C8.4375 2.46807 8.48689 2.5873 8.5748 2.67521C8.6627 2.76311 8.78193 2.8125 8.90625 2.8125ZM14.0625 4.6875H13.5938V4.21875C13.5938 4.09443 13.5444 3.9752 13.4565 3.88729C13.3686 3.79939 13.2493 3.75 13.125 3.75C13.0007 3.75 12.8815 3.79939 12.7935 3.88729C12.7056 3.9752 12.6563 4.09443 12.6563 4.21875V4.6875H12.1875C12.0632 4.6875 11.944 4.73689 11.856 4.82479C11.7681 4.9127 11.7188 5.03193 11.7188 5.15625C11.7188 5.28057 11.7681 5.3998 11.856 5.48771C11.944 5.57561 12.0632 5.625 12.1875 5.625H12.6563V6.09375C12.6563 6.21807 12.7056 6.3373 12.7935 6.42521C12.8815 6.51311 13.0007 6.5625 13.125 6.5625C13.2493 6.5625 13.3686 6.51311 13.4565 6.42521C13.5444 6.3373 13.5938 6.21807 13.5938 6.09375V5.625H14.0625C14.1868 5.625 14.3061 5.57561 14.394 5.48771C14.4819 5.3998 14.5313 5.28057 14.5313 5.15625C14.5313 5.03193 14.4819 4.9127 14.394 4.82479C14.3061 4.73689 14.1868 4.6875 14.0625 4.6875Z" fill="black"/>
</g>
<defs>
<clipPath id="clip0_1_13">
<rect width="15" height="15" fill="white"/>
</clipPath>
</defs>
</svg>
